<?xml version="1.0"?>
<svg width="24" height="24" xmlns="http://www.w3.org/2000/svg" xmlns:svg="http://www.w3.org/2000/svg">

 <g class="layer">
  <title>Layer 1</title>
  <path d="m12.5,7.41l0,14.59l-8.42,0c-1.16,0 -2.11,-0.93 -2.11,-2.07l0,-14.84c0,-2.62 1.96,-3.81 4.35,-2.64l4.43,2.19c0.96,0.47 1.75,1.72 1.75,2.77z" fill="#007fff" id="svg_1" opacity="0.4" transform="matrix(1 0 0 1 0 0)"/>
  <path d="m8.97,9.75l-3.47,0c-0.41,0 -0.75,-0.34 -0.75,-0.75s0.34,-0.75 0.75,-0.75l3.47,0a0.75,0.75 0 1 1 0,1.5z" fill="#007fff" id="svg_2"/>
  <path d="m8.97,13.75l-3.47,0c-0.41,0 -0.75,-0.34 -0.75,-0.75s0.34,-0.75 0.75,-0.75l3.47,0a0.75,0.75 0 1 1 0,1.5z" fill="#007fff" id="svg_3"/>
  <path d="m22,15.05l0,4.45a2.5,2.5 0 0 1 -2.5,2.5l-7,0l0,-11.58l0.47,0.1l4.04,0.9l0.48,0.11l2.04,0.46c0.49,0.1 0.94,0.27 1.33,0.52c0,0.01 0.01,0.01 0.01,0.01c0.1,0.07 0.2,0.15 0.29,0.24c0.46,0.46 0.76,1.13 0.83,2.11c0,0.06 0.01,0.12 0.01,0.18z" fill="#007fff" id="svg_4" opacity="0.6"/>
  <path d="m12.5,10.42l0,6c0.46,0.61 1.18,1 2,1c1.39,0 2.51,-1.12 2.51,-2.5l0,-3.49l-4.04,-0.9l-0.47,-0.11z" fill="#007fff" id="svg_5"/>
  <path d="m21.99,14.87c-0.07,-0.98 -0.37,-1.65 -0.83,-2.11c-0.09,-0.09 -0.19,-0.17 -0.29,-0.24c0,0 -0.01,0 -0.01,-0.01c-0.39,-0.25 -0.84,-0.42 -1.33,-0.52l-2.04,-0.46l-0.48,-0.11l0,3.5a2.5,2.5 0 0 0 2.5,2.5a2.5,2.5 0 0 0 2.49,-2.36l0,-0.01c0,-0.06 -0.01,-0.12 -0.01,-0.18z" fill="#007fff" id="svg_6"/>
 </g>
</svg>