<svg xmlns="http://www.w3.org/2000/svg" width="18" height="18" fill="none" viewBox="0 0 18 18"><path fill="#FF3F3F" d="M9 16.5a7.5 7.5 0 1 0 0-15 7.5 7.5 0 0 0 0 15Z" opacity="0.4"/><path fill="#FF3F3F" d="m9.795 9 1.725-1.725a.566.566 0 0 0 0-.795.566.566 0 0 0-.795 0L9 8.205 7.275 6.48a.566.566 0 0 0-.795 0 .566.566 0 0 0 0 .795L8.205 9 6.48 10.725a.566.566 0 0 0 0 .795.556.556 0 0 0 .397.165.556.556 0 0 0 .398-.165L9 9.795l1.725 1.725a.556.556 0 0 0 .397.165.556.556 0 0 0 .398-.165.566.566 0 0 0 0-.795L9.795 9Z"/></svg>